<?xml version="1.0" standalone="no"?><!DOCTYPE svg PUBLIC "-//W3C//DTD SVG 1.1//EN" "http://www.w3.org/Graphics/SVG/1.1/DTD/svg11.dtd"><svg t="1673773011190" class="icon" viewBox="0 0 1085 1024" version="1.1" xmlns="http://www.w3.org/2000/svg" p-id="6806" xmlns:xlink="http://www.w3.org/1999/xlink" width="211.9140625" height="200"><path d="M606.538508 568.113579m-361.39045 0a361.390449 361.390449 0 1 0 722.780899 0 361.390449 361.390449 0 1 0-722.780899 0Z" fill="#C1D3F4" p-id="6807"></path><path d="M541.598625 503.173696m-361.39045 0a361.390449 361.390449 0 1 0 722.780899 0 361.390449 361.390449 0 1 0-722.780899 0Z" fill="#FFD7E3" p-id="6808"></path><path d="M991.632014 1023.991558h-177.285881a12.663277 12.663277 0 0 1-8.766884-3.571694 13.637375 13.637375 0 0 1-3.246994-9.091583c0-3.571694 11.689179-370.482033-105.852009-649.398831a12.013878 12.013878 0 0 1 22.404259-9.416283c107.475506 253.265544 109.099004 578.289659 108.124906 645.827137h164.622603a12.338578 12.338578 0 1 1 0 24.352456zM671.80309 1023.991558h-2.922295a12.338578 12.338578 0 0 1-9.091583-14.611474c60.069392-245.472758 0-621.149981 0-624.721675a11.689179 11.689179 0 0 1 10.065682-13.962075 12.013878 12.013878 0 0 1 13.962074 10.065682c0 3.571694 61.04349 384.119408 0 634.462658a12.013878 12.013878 0 0 1-12.013878 8.766884z" fill="#231815" p-id="6809"></path><path d="M610.7596 422.648241a62.342288 62.342288 0 1 1 62.017588-64.939883 62.342288 62.342288 0 0 1-62.017588 64.939883z m0-100.332119A37.989832 37.989832 0 1 0 649.39883 357.708358a37.989832 37.989832 0 0 0-38.63923-37.015734zM774.083406 349.590872a12.338578 12.338578 0 0 1-12.013878-9.091583 12.663277 12.663277 0 0 1 9.091583-14.936173 231.835382 231.835382 0 0 0 74.680866-44.48382c10.390381-7.792786 19.806664-14.936173 28.248849-20.456063a328.271109 328.271109 0 0 1 140.594847-48.380213 349.70127 349.70127 0 0 0-367.559738 82.473651 12.663277 12.663277 0 0 1-17.209069 0 12.013878 12.013878 0 0 1 0-17.209069c1.623497-1.948196 174.363586-191.247956 447.435794-68.511576a11.689179 11.689179 0 0 1 6.818687 13.637375 12.338578 12.338578 0 0 1-12.013878 9.416283 343.207282 343.207282 0 0 0-183.779869 47.730814c-8.117485 5.51989-16.88437 12.338578-26.625352 19.806664a251.642047 251.642047 0 0 1-84.097149 48.704913z" fill="#231815" p-id="6810"></path><path d="M634.462657 292.768475h-2.272896a12.338578 12.338578 0 0 1-9.740982-14.286775A359.117553 359.117553 0 0 1 991.956714 0.539001a12.013878 12.013878 0 0 1 5.19519 23.053659 307.815046 307.815046 0 0 0-140.270147 133.776159 12.663277 12.663277 0 0 1-16.55967 5.51989 12.338578 12.338578 0 0 1-5.51989-16.234971A309.438543 309.438543 0 0 1 943.576501 26.839654a324.699415 324.699415 0 0 0-297.099965 254.889041 12.013878 12.013878 0 0 1-12.013879 11.03978z" fill="#231815" p-id="6811"></path><path d="M477.957539 341.148688a254.889041 254.889041 0 0 1-83.772449-12.338578A341.259085 341.259085 0 0 0 204.235932 325.238416 12.013878 12.013878 0 0 1 194.819649 304.457654a370.806732 370.806732 0 0 1 450.682788-21.430162 11.689179 11.689179 0 0 1 3.896393 9.740983 11.689179 11.689179 0 0 1-4.221092 9.416283c-21.754861 18.832566-96.111027 38.96393-167.220199 38.96393zM300.346959 289.521481a305.54215 305.54215 0 0 1 101.955616 16.23497A351.000068 351.000068 0 0 0 616.928889 292.768475 337.037993 337.037993 0 0 0 254.564342 292.768475a418.537546 418.537546 0 0 1 45.782617-3.246994z" fill="#231815" p-id="6812"></path><path d="M649.39883 282.378093a12.013878 12.013878 0 0 1-11.689179-8.766884 288.98248 288.98248 0 0 0-268.526416-200.01484 209.431123 209.431123 0 0 1 97.409825 64.939883c9.416283 10.715081 19.806664 22.40426 32.469941 32.469942a12.013878 12.013878 0 1 1-17.533768 16.88437c-11.689179-12.013878-22.40426-24.027757-32.469942-35.067537-41.886225-48.704912-92.864033-64.939883-166.2461-74.356166a12.338578 12.338578 0 0 1 0-24.352456C584.458947 6.058891 660.438611 264.194926 661.412709 266.792522a12.013878 12.013878 0 0 1-8.442185 14.936173z" fill="#231815" p-id="6813"></path><path d="M699.72724 370.696334a62.342288 62.342288 0 1 1 62.342288-62.017588 62.342288 62.342288 0 0 1-62.342288 62.017588z m0-100.00742a37.989832 37.989832 0 1 0 37.989831 37.989832 37.989832 37.989832 0 0 0-37.989831-37.989832zM580.887254 779.817598a12.013878 12.013878 0 0 1-12.338578-12.013879 256.512538 256.512538 0 1 0-512.700377 0 12.338578 12.338578 0 0 1-24.352456 0 280.864994 280.864994 0 1 1 561.405289 0 11.689179 11.689179 0 0 1-12.013878 12.013879zM461.07317 865.538243a156.180419 156.180419 0 0 1-80.200756-20.780762 137.672552 137.672552 0 0 0-69.485675-16.88437 135.724356 135.724356 0 0 0-69.485675 16.88437 157.154517 157.154517 0 0 1-79.551356 20.780762A157.154517 157.154517 0 0 1 81.499553 844.757481a135.399656 135.399656 0 0 0-69.160975-16.88437 12.338578 12.338578 0 0 1-12.338578-11.36448 12.013878 12.013878 0 0 1 12.338578-12.013878 156.180419 156.180419 0 0 1 79.876056 19.481965 136.373754 136.373754 0 0 0 70.135074 17.209069 137.347853 137.347853 0 0 0 69.485674-17.209069 156.505118 156.505118 0 0 1 80.200756-19.481965 157.479216 157.479216 0 0 1 80.200756 19.481965 135.399656 135.399656 0 0 0 69.485674 17.209069 137.347853 137.347853 0 0 0 69.485675-17.209069 156.505118 156.505118 0 0 1 80.200756-19.481965 12.013878 12.013878 0 0 1 12.013878 12.013878 12.338578 12.338578 0 0 1-12.013878 12.338578 135.724356 135.724356 0 0 0-69.485675 16.88437 157.154517 157.154517 0 0 1-80.850154 19.806664zM422.10924 942.167305a120.463483 120.463483 0 0 1-61.36819-15.260872 100.656819 100.656819 0 0 0-50.653108-12.338578A99.68272 99.68272 0 0 0 259.759532 925.932334a120.463483 120.463483 0 0 1-60.394091 16.234971 120.463483 120.463483 0 0 1-61.36819-15.260872 100.656819 100.656819 0 0 0-50.653108-12.338578 12.338578 12.338578 0 1 1 0-24.352456 121.112882 121.112882 0 0 1 61.368189 14.936173 97.409825 97.409825 0 0 0 50.653109 12.663277 97.409825 97.409825 0 0 0 50.328409-12.663277 123.385778 123.385778 0 0 1 61.692889-14.936173 121.112882 121.112882 0 0 1 61.36819 14.936173 97.409825 97.409825 0 0 0 50.653108 12.663277 97.409825 97.409825 0 0 0 50.653109-12.663277 121.112882 121.112882 0 0 1 61.36819-14.936173 12.338578 12.338578 0 1 1 0 24.352456 100.656819 100.656819 0 0 0-50.653109 12.338578A120.463483 120.463483 0 0 1 422.10924 942.167305zM391.912194 1016.523471a97.409825 97.409825 0 0 1-45.457918-10.065682 68.836276 68.836276 0 0 0-35.067537-8.117485A71.109172 71.109172 0 0 0 275.994503 1007.107188a94.16283 94.16283 0 0 1-45.133219 10.065682 97.409825 97.409825 0 0 1-45.457918-10.065682 68.836276 68.836276 0 0 0-35.067537-8.117485 12.338578 12.338578 0 0 1 0-24.352456 97.409825 97.409825 0 0 1 44.48382 9.740982 72.732669 72.732669 0 0 0 35.067537 7.792786 72.732669 72.732669 0 0 0 35.067537-7.792786 97.409825 97.409825 0 0 1 46.432016-9.740982 93.513432 93.513432 0 0 1 45.782618 9.740982 75.330264 75.330264 0 0 0 35.392236 7.792786 72.732669 72.732669 0 0 0 35.067537-7.792786 97.409825 97.409825 0 0 1 45.457918-10.390381 12.338578 12.338578 0 1 1 0 24.352456 68.836276 68.836276 0 0 0-35.067537 8.117485 97.409825 97.409825 0 0 1-46.107317 10.065682z" fill="#231815" p-id="6814"></path></svg>